<?xml version="1.0" encoding="UTF-8" standalone="no"?>
<!DOCTYPE svg PUBLIC "-//W3C//DTD SVG 20010904//EN"
              "http://www.w3.org/TR/2001/REC-SVG-20010904/DTD/svg10.dtd">

<svg xmlns="http://www.w3.org/2000/svg"
     width="1.76389in" height="1.18056in"
     viewBox="0 0 127 85">
  <path id="Selection"
        fill="#fff" stroke="black" stroke-width="1"
        d="M 61.00,50.00
           C 58.76,47.81 51.49,41.97 50.60,39.82
             48.19,34.02 53.13,23.76 56.36,19.00
             57.71,17.01 60.23,13.20 62.93,13.20
             65.25,13.20 67.35,16.31 68.56,18.00
             71.80,22.52 77.82,33.13 75.40,38.79
             74.51,40.86 63.50,48.26 61.00,50.00 Z
           M 39.00,28.00
           C 46.13,31.13 46.32,31.51 45.00,39.00
             45.00,39.00 38.00,37.00 38.00,37.00
             38.00,37.00 39.00,28.00 39.00,28.00 Z
           M 86.00,29.00
           C 86.40,30.42 86.80,31.43 86.84,32.96
             87.05,42.38 75.42,34.98 82.31,30.30
             83.43,29.54 84.74,29.34 86.00,29.00 Z
           M 31.00,42.00
           C 38.68,42.02 56.01,44.82 57.94,54.00
             58.39,56.14 54.71,66.48 54.00,70.00
             39.65,64.16 35.26,56.27 31.00,42.00 Z
           M 58.00,72.00
           C 62.93,50.17 71.31,42.02 94.00,42.00
             89.78,60.51 78.74,74.76 58.00,72.00 Z
           M 94.00,55.00
           C 94.00,55.00 111.00,62.00 111.00,62.00
             111.00,62.00 111.00,64.00 111.00,64.00
             103.59,67.90 87.22,74.74 79.00,72.00
             86.56,66.28 89.32,63.09 94.00,55.00 Z
           M 17.00,64.00
           C 19.63,60.71 26.17,55.50 30.82,56.78
             33.21,57.44 35.52,61.13 37.18,63.00
             37.18,63.00 48.00,73.00 48.00,73.00
             28.87,69.57 35.66,72.04 17.00,64.00 Z" />
</svg>
